<svg data-index="2" version="1.1" id="Layer_1" xmlns="http://www.w3.org/2000/svg" xmlns:xlink="http://www.w3.org/1999/xlink" x="0px" y="0px" viewBox="0 0 1161.3 1440" style="enable-background:new 0 0 1161.3 1440;" xml:space="preserve">
<path class="totem-03 totem-part" d="M467.7,878.7h99.7c0,0,1.5,13.1-0.2,32c0,0,6.7,14,4.3,33.9l-2.5-0.7c0,0,0.2,16.6,0.8,22.5s1.6,14.8,0.2,28.1
	c-1.4,13.3-0.9,46.3-0.9,46.3l1.8,72.2c0,0-0.3,2.1-1.3,3.4c-1,1.3-0.5,8-0.5,8l1.9,57.6c0,0-10,1.3-18.2-0.4
	c-8.2-1.7-15.7-7.1-16.8-11.8c-1.2-4.7-1.3-16.7-1.3-16.7s-3.4-0.8-4.2,1.9c0,0-0.8-2.8-4.2-2.7s-4,2.6-4,2.6s-0.1-3.5-4.5-3.4
	c-4.3,0.1-4.2,2.4-4.2,2.4s-1.4-2.2-4-2.1s-3.1,0.1-3.1,2.6c0,0-0.7-3.1-4-2.4c0,0-2.2-0.3-2,3c0,0-0.2,9.1-0.9,13
	c-0.7,4-2,5.4-3.8,7.1s-5.3,4.6-9.4,5.5c-4.1,0.9-9.3,1.9-14.5,1.8c-5.2-0.1-6.8-0.3-7.2-0.6c0,0,0.6-29,0.7-37.2s1.3-26.6,1.3-26.6
	s-2.1-3-1.9-4.7c0.2-1.8,0.7-46.1,0.7-46.1l1.2-35.1c0,0,0.5-23.1-0.4-29.5c-0.9-6.4-1.4-22.6-1.2-28.1c0.2-5.5,1.8-26.3,1.5-30.4
	l-2.1,0.4c0,0-4.2-10.2,3.5-33.3C467.9,911.3,466.7,897.3,467.7,878.7z"/>
</svg>
