<svg data-index="4" version="1.1" id="Layer_1" xmlns="http://www.w3.org/2000/svg" xmlns:xlink="http://www.w3.org/1999/xlink" x="0px" y="0px" viewBox="0 0 1161.3 1440" style="enable-background:new 0 0 1161.3 1440;" xml:space="preserve">
<path class="totem-05 totem-part" d="M467.9,722.6c0,0,4-0.9,5.1-0.4l-0.1-2.2l-0.4-3.6c0,0,0.6-2,0.6-3.1c0-1.1-0.9-5.1,2.8-7.6
	c3.8-2.5,7.7-2.4,9.1-0.7c1.4,1.7,2.4,2.8,2,6.4c0,0,1.6-0.6,1.9,0.2c0.4,0.8,0.8,1.9,0.9,3.6c0.1,1.6,1,2.2,1,2.2s1.7,5.1,3.2,5.3
	c1.5,0.2,7.4,0.6,7.4,0.6s-2.6-8.2,3.3-13c0,0,2.7-3.2,5.9-2.5c3.2,0.7,8,2.9,8.3,6l1.2-0.4l1.6-5.1c0,0,1.2-3.1,8.9-2.1
	c0,0,7.4-0.1,10.1,3c0,0,1.9,1.9,0.9,6.2c0,0,3.8-2.2,9.9-2.1s7.3,1.9,7.3,1.9l0.7,1.4c0,0,3.5-3.7,5.3-3.6c0,0,1.3,2.7,0.7,14.4
	c-0.7,11.7-1.2,11.3-1.2,11.3l-1.8,1.4c0,0,1.1,13.7,1.3,18.5s0.6,23.3,0.6,23.3s-0.9,2.4-2.5,3c-1.6,0.6,3.3,8.4,5.7,10.3l0.2,8.1
	H462.9V803l-0.1-7.5c0,0,4.2-4,4.2-7.8c0-3.8-0.7-21.6-0.8-22.7c-0.1-1.1,1.2-12.3,1.2-12.3l0.2-4.1c0,0-3.9-2.6-1.4-7.9l-1.4-1.5
	l1.4-5.7l-0.8-2.4l0.3-6.6C465.6,724.3,465.9,722.8,467.9,722.6z"/>
</svg>
