<svg data-index="5" version="1.1" id="Layer_1" xmlns="http://www.w3.org/2000/svg" xmlns:xlink="http://www.w3.org/1999/xlink" x="0px" y="0px" viewBox="0 0 1161.3 1440" style="enable-background:new 0 0 1161.3 1440;" xml:space="preserve">
<path class="totem-06 totem-part" d="M470.2,596l5.9-5.8l8.6-5.1l2.1-1.2c0,0,9-2.1,14.1-2.4c5.1-0.3,15.2-1.1,20.1-0.9c4.9,0.2,11.9,0,11.9,0
	l8.5,0.6l6.9,4.6l4.5,2.8l3.7,3c0,0,4.4,4.7,4.4,6.8l0.2,27.8l1.4,2.6l0.1,11.9l-1.5,1.1l-0.2,4.7c0,0,1.9,5.2,0.6,8.5l0.4,55.2
	c0,0,2.4,1.2,2.9,2.7c0,0-6.9,6.6-5.1,3.9c0-0.1,0.2-2.6-4.6-3.1c-4.8-0.5-6.2-0.4-6.2-0.4s-5.5,0.7-7.3,2c0,0,1.4-5.7-2.1-7
	c-3.5-1.4-4.7-2.2-8.6-2.1c-3.9,0-6.7-0.3-7.9,1.1s-1.5,0.4-2.7,6.2l-1.2,0.4c0,0-0.1-2.2-2.6-3.5s-3.6-2.5-5.5-2.5
	c-1.9,0-6.3,1.1-8,4.7c-1.7,3.7-2,3.1-2,6c0,2.9,0.5,4.5,0.5,4.5L495,723c0,0-1.9,0.3-3.4-3.9s-1.8-4.7-1.8-4.7s-0.3-3.2-1.4-3
	c-1.1,0.2-1.4,0.5-1.4,0.5s0-4.6-0.6-5.6c-0.6-1-2.9-2.7-5.4-2.3s-5.9,1.7-7.1,4.3c-1.2,2.6-1.1,6.5-1.1,6.5l-0.3,1.9l0.5,5.2
	l-4.6,0.5l1.7-6.1l-0.7-57.5l-0.8-2.2l1.5-15.1l1.7-5.2l-1.7-11.4c0,0,0.4-4.1,0.4-4.2c0.1-0.1-0.4-3.9-0.4-3.9s0.3-5.3,0.3-5.4
	C470.5,611.4,470.2,596,470.2,596z"/>
</svg>
