<svg data-index="7" version="1.1" id="Layer_1" xmlns="http://www.w3.org/2000/svg" xmlns:xlink="http://www.w3.org/1999/xlink" x="0px" y="0px" viewBox="0 0 1161.3 1440" style="enable-background:new 0 0 1161.3 1440;" xml:space="preserve">
<path class="totem-08 totem-part" d="M571.7,349.2c-0.6-2.9-3.1-1.9-3.1-1.9c-1.8,0.4-2.4,2.6-2.4,4.7s-0.4,2.7-0.4,2.7l-4.9-1.9l-0.2-23.9l0.3-8.1
	l2.3-10.8l1.6-6.8l0-5.9l-1.9-8.5l-2.5-5.1l-2.7,0.6l-2.6,7.7L555,299l0.4,8.5l2.8,14l-0.2,31l-6.1-3.7l-6-8.6l3.6-19.9l-16.3-0.2
	l2.8,20.1l-3.8,7.9l-4.3,3.2l-1.4,1.9l-2.5,1l0.2-30.1l3.9-18.3l0.1-5.6l-2.1-9.5l-2.3-4.2l-2.5,0.2l-2.8,8.3l-0.4,6.5l0.4,8.2
	l2.8,14.5l-0.2,31.2l-4.8,1.3l-2.5,0.1l0.4,6.4l-9.5-2.1l-1-0.5l0.9-50.4l3.1-10.4l-0.1-19.2l-0.9-1.4l-7.6,0.1l-1,0.7L498,299
	l3.2,10.7v50l-3.6-1.7l-5.8-3.4l-6.2-3.7l-11,7.3l-6.9,2.9l0.7-53.7l3.2-10.8l0.1-18.6l-1-1.4l-6,0.1l-1.2,0.8l-0.1,6.3l-5.8-0.1
	l-1.2,1.2l0.1,19.8l2.8,7.5l-0.7,50l-0.8,0.9l2.1,8l3.3,5.7l4.9,5.3l6.2,3.7h23.1l5.9-3.3l5-4.8l3.3-6l2.3-7.4l3.5,9.9l4,6.6
	l5.4,3.1l5.8,2l5,0.3l10-0.7l9.5-3.6l7.2-6.4l2.4-4.5l1.9-15.2c0,0,0.1-1.2,1.9-1.5c1.8-0.3,1.8-1.3,1.8-1.3L571.7,349.2z
	 M465.2,361.6l-3.9,0.7l0.3-51.1l3.3-6.1l0.5,1.4L465.2,361.6z"/>
</svg>
