<svg data-index="8" version="1.1" id="Layer_1" xmlns="http://www.w3.org/2000/svg" xmlns:xlink="http://www.w3.org/1999/xlink" x="0px" y="0px" viewBox="0 0 1161.3 1440" style="enable-background:new 0 0 1161.3 1440;" xml:space="preserve">
	<g>
		<path class="totem-09 totem-part" d="M492.3,227.5c0,0,4.6-1.7,9.1-1.4c0,0,2.1,0.1,2.5-0.4c0,0,2.6,1.6,4.9-0.1c0,0,3.4,2,4.5-1.6
			c0,0,1.5,4.1,4.4,1.4c0,0,2,2.2,4.9,0.3c0,0,1.4,0.5,2.3,0.4s7.7,0.4,10.3,1.6l-4,15.2L529,254l-0.7,8.3l-0.1,4.3l0.4,14l-0.6,2.1
			l-1,0.9l-7.2,2.1l-6.1,1l-6-1.3l-0.2-5l-1-1.3l-7.2-0.2l0.4-10.2l-0.4-8.8l-1.5-10.6l-2.4-10.3L492.3,227.5z"/>
		<path class="totem-09 totem-part" d="M485.2,277.1h5.5l0.6,21.1l-0.7,24.8h-5.1C485.4,323.1,485.2,277.1,485.2,277.1z"/>
		<polygon class="totem-09 totem-part" points="542.2,276.8 535.7,276.8 535.6,295.6 536.4,320.1 542.2,320.1 	"/>
	</g>
</svg>
