<svg data-index="9" version="1.1" id="Layer_1" xmlns="http://www.w3.org/2000/svg" xmlns:xlink="http://www.w3.org/1999/xlink" x="0px" y="0px" viewBox="0 0 1161.3 1440" style="enable-background:new 0 0 1161.3 1440;" xml:space="preserve">
<g>
	<path class="totem-10 totem-part" d="M513.3,223.6c0,0,1,4.5,4.3,1.9c0,0,2.6,2.2,4.9,0.2c0,0,2.8,1.9,5.4-2.3h11.5c0,0-5.5-12.7-5.5-17.9l8.3,0.2
		l3.6-4.9l-0.3,8c0,0,4,2.9,8.2,1.9c0,0,2.1,0.9,4-5.8l1,0.3c0,0-0.7,7.8,0.1,8.8s6.9,1.4,6.9,1.4s4-0.4,4.7-4l1.6-1.4l-2.2,14.1
		c0,0-1.1,4.3,3.2,6.6c4.2,2.3,8.4,3.8,9.6,5.8c0,0,0.1-11.4,1-12.2c0,0,1.2,5.4,1.8,9.9s7.5,3.7,7.5,3.7l5.9-0.8l-0.4-10.7
		c0,0,2.5,7.4,3.2,8.3c0.8,0.8,3.6,3.3,12.7,1.2l-7.2-59.9l-5.7-37.5c0,0-0.2-14.1-11.3-16.6s-24,1.9-24,1.9s-9.2,4.1-14.9,8.1
		c-5.7,4-15.1,4.8-17.1,3.7s-1.7-3.6-1-15.2s-2-18.6-7.6-20c-5.6-1.5-13.1-1.3-13.1-1.3s-15.3-0.9-17.5,6.7
		c-2.3,7.5-2.4,11.7-1.8,19.3s0.7,9.8-0.9,10.3s-9.8,2.2-21.5-5.9s-25.4-9.7-32.4-7.6s-10.6,1.2-13.7,15.1l-4.2,29.3l-5.7,45.4
		l-2.8,24.2c0,0,12.7,4.1,14.3-5l1.5-3.4l-0.3,9.6c0,0,12.6,2.2,13.2-1.2s1.6-11.9,1.6-11.9l1,0.2l0.2,12.6c0,0,3.7-2.9,6.3-4.1
		c2.6-1.2,7.9-2,6.5-10.2c-1.4-8.3-2.1-15.5-2.1-15.5l0.6-0.1c0,0,1.4,9.5,6.3,8.6c5-0.9,6.2-1.3,6.2-1.3s1.5-5.4,0.7-8.7l0.8-0.2
		c0,0,0.7,6.6,6.8,5.4s5.7-1.2,5.4-5.1c-0.3-3.9-0.4-5.9-0.4-5.9l0.6-0.1c0,0,1.1,6.8,5.4,6.5s6.1-1,6.1-1s-3,13.9-5.4,18.4h11.3
		c0,0,1.2,3.5,5.3,2.3c0,0,1.9,1.7,4.8-0.1C508.8,225.6,512.6,227.8,513.3,223.6z"/>
</g>
</svg>
