<svg data-index="1" version="1.1" id="Layer_1" xmlns="http://www.w3.org/2000/svg" xmlns:xlink="http://www.w3.org/1999/xlink" x="0px" y="0px" viewBox="0 0 1161.3 1440" style="enable-background:new 0 0 1161.3 1440;" xml:space="preserve">
<path class="totem-02 totem-part" d="M462.9,1311.4l1.5-129.8c0,0,8.6,1.6,16.1,0.3c7.5-1.3,13.7-4,17.8-9.7c0,0,1.2-2.3,1.4-4.3
	c0,0,0.5-15.6,1-15.8s4.5-1.1,5.4,1.2c0,0,0.7-1.9,3.1-1.6c2.4,0.3,3.4,0.7,4.3,1.7c0,0,1.6-2.5,4-2.1c2.4,0.4,3.9,0.3,4.5,2.6
	c0,0,1.7-1.7,4.1-1.7c0,0,3.4-0.9,4,2.3c0,0,2.3-2.6,4.7-1.6l0.9,15.9c0,0,2.2,7.2,10.9,10.7c8.7,3.6,19,2.7,19,2.7s4.7-0.4,5.2-0.7
	l1.7,129.6H462.9z"/>
</svg>
