<svg data-index="6" version="1.1" id="Layer_1" xmlns="http://www.w3.org/2000/svg" xmlns:xlink="http://www.w3.org/1999/xlink" x="0px" y="0px" viewBox="0 0 1161.3 1440" style="enable-background:new 0 0 1161.3 1440;" xml:space="preserve">
<path class="totem-07 totem-part" d="M471.4,386.3l4.6-0.7l16.5-0.2l12.1,0.4L515,385l15,1.2l0.3,0.6l6.4-0.8l4.5,0.4l6.5-0.9l8.8,0.9v22.4
	l0.7,26.5l1.5,37.7v29.7l0.9,33.1l0.9,26.7l0.4,35.2c0,0-0.8-4.2-9.6-10.2c-8.8-6.1-10.9-6.6-10.9-6.6s-13.3-0.6-23.6-0.3
	c-10.3,0.3-22.2,1.6-24.9,2.3c-2.8,0.7-6.3,1.5-6.3,1.5l-1.1,0.8c0,0-6.4,3.5-9.4,6.2c-3,2.6-4.7,5.6-4.7,5.6l0.2-42l0.2-33.3
	l0-35.7l0-35.1l0.1-49.3L471.4,386.3z"/>
</svg>
